<mxfile host="www.draw.io" modified="2019-11-21T16:59:58.049Z" agent="Mozilla/5.0 (Macintosh; Intel Mac OS X 10_15_1) AppleWebKit/605.1.15 (KHTML, like Gecko) Version/13.0.3 Safari/605.1.15" etag="gT2RLIKq5lvAuOJ4hPta" version="12.2.8" type="github" pages="1">
  <diagram id="FUK5VRdXRRXg4a2FzhbF" name="Page-1">
    <mxGraphModel dx="932" dy="593" grid="1" gridSize="10" guides="1" tooltips="1" connect="1" arrows="1" fold="1" page="1" pageScale="1" pageWidth="1169" pageHeight="827" math="0" shadow="0">
      <root>
        <mxCell id="0"/>
        <mxCell id="1" parent="0"/>
        <mxCell id="m8ftNf-RLhbLN0EkpQ5M-30" value="" style="rounded=1;whiteSpace=wrap;html=1;strokeColor=#666666;fillColor=none;fontSize=24;align=center;opacity=60;strokeWidth=3;dashed=1;" vertex="1" parent="1">
          <mxGeometry x="9.5" y="220" width="560" height="250" as="geometry"/>
        </mxCell>
        <mxCell id="eDpG2MKJNi3HJfzrJsTe-13" value="" style="rounded=1;whiteSpace=wrap;html=1;strokeColor=#666666;fillColor=#E6E6E6;fontSize=24;align=center;opacity=60;" parent="1" vertex="1">
          <mxGeometry x="31" y="280" width="350" height="180" as="geometry"/>
        </mxCell>
        <mxCell id="eDpG2MKJNi3HJfzrJsTe-20" value="" style="line;html=1;strokeColor=#000000;" parent="1" vertex="1">
          <mxGeometry x="61" y="415" width="530" height="10" as="geometry"/>
        </mxCell>
        <mxCell id="eDpG2MKJNi3HJfzrJsTe-3" value="FW avec des ACLs" style="text;html=1;strokeColor=none;fillColor=none;align=center;verticalAlign=middle;whiteSpace=wrap;rounded=0;" parent="1" vertex="1">
          <mxGeometry x="556" y="466" width="90" height="20" as="geometry"/>
        </mxCell>
        <mxCell id="eDpG2MKJNi3HJfzrJsTe-4" value="R-DC-1" style="text;html=1;strokeColor=none;fillColor=none;align=center;verticalAlign=middle;whiteSpace=wrap;rounded=0;fontSize=12;fontStyle=1" parent="1" vertex="1">
          <mxGeometry x="576" y="366" width="50" height="20" as="geometry"/>
        </mxCell>
        <mxCell id="eDpG2MKJNi3HJfzrJsTe-5" value="" style="shape=mxgraph.cisco.switches.workgroup_switch;html=1;pointerEvents=1;dashed=0;fillColor=#000000;strokeColor=#ffffff;strokeWidth=2;verticalLabelPosition=bottom;verticalAlign=top;align=center;outlineConnect=0;" parent="1" vertex="1">
          <mxGeometry x="390" y="391" width="101" height="50" as="geometry"/>
        </mxCell>
        <mxCell id="m8ftNf-RLhbLN0EkpQ5M-24" style="edgeStyle=none;rounded=0;orthogonalLoop=1;jettySize=auto;html=1;exitX=1;exitY=0.5;exitDx=0;exitDy=0;exitPerimeter=0;entryX=0;entryY=0.5;entryDx=0;entryDy=0;entryPerimeter=0;endArrow=none;endFill=0;strokeWidth=3;" edge="1" parent="1" source="eDpG2MKJNi3HJfzrJsTe-6" target="m8ftNf-RLhbLN0EkpQ5M-4">
          <mxGeometry relative="1" as="geometry"/>
        </mxCell>
        <mxCell id="m8ftNf-RLhbLN0EkpQ5M-25" style="edgeStyle=none;rounded=0;orthogonalLoop=1;jettySize=auto;html=1;exitX=0.88;exitY=0.9;exitDx=0;exitDy=0;exitPerimeter=0;endArrow=none;endFill=0;strokeWidth=3;entryX=0.12;entryY=0.1;entryDx=0;entryDy=0;entryPerimeter=0;" edge="1" parent="1" source="eDpG2MKJNi3HJfzrJsTe-6" target="m8ftNf-RLhbLN0EkpQ5M-8">
          <mxGeometry relative="1" as="geometry"/>
        </mxCell>
        <mxCell id="eDpG2MKJNi3HJfzrJsTe-6" value="" style="shape=mxgraph.cisco.routers.router;html=1;pointerEvents=1;dashed=0;fillColor=#000000;strokeColor=#ffffff;strokeWidth=2;verticalLabelPosition=bottom;verticalAlign=top;align=center;outlineConnect=0;" parent="1" vertex="1">
          <mxGeometry x="562" y="391" width="78" height="53" as="geometry"/>
        </mxCell>
        <mxCell id="eDpG2MKJNi3HJfzrJsTe-14" value="" style="shape=mxgraph.cisco.servers.fileserver;html=1;dashed=0;fillColor=#000000;strokeColor=#ffffff;strokeWidth=2;verticalLabelPosition=bottom;verticalAlign=top;fontFamily=Helvetica;fontSize=36;fontColor=#FFB366" parent="1" vertex="1">
          <mxGeometry x="67.5" y="345" width="43" height="62" as="geometry"/>
        </mxCell>
        <mxCell id="eDpG2MKJNi3HJfzrJsTe-15" value="" style="shape=mxgraph.cisco.servers.fileserver;html=1;dashed=0;fillColor=#000000;strokeColor=#ffffff;strokeWidth=2;verticalLabelPosition=bottom;verticalAlign=top;fontFamily=Helvetica;fontSize=36;fontColor=#FFB366" parent="1" vertex="1">
          <mxGeometry x="271.5" y="345" width="43" height="62" as="geometry"/>
        </mxCell>
        <mxCell id="eDpG2MKJNi3HJfzrJsTe-16" value="" style="shape=mxgraph.cisco.servers.file_server;html=1;dashed=0;fillColor=#000000;strokeColor=#ffffff;strokeWidth=2;verticalLabelPosition=bottom;verticalAlign=top;fontFamily=Helvetica;fontSize=36;fontColor=#FFB366" parent="1" vertex="1">
          <mxGeometry x="205.5" y="350" width="43" height="58" as="geometry"/>
        </mxCell>
        <mxCell id="eDpG2MKJNi3HJfzrJsTe-17" value="" style="shape=mxgraph.cisco.servers.storage_server;html=1;dashed=0;fillColor=#000000;strokeColor=#ffffff;strokeWidth=2;verticalLabelPosition=bottom;verticalAlign=top;fontFamily=Helvetica;fontSize=36;fontColor=#FFB366" parent="1" vertex="1">
          <mxGeometry x="129.5" y="324" width="54" height="83" as="geometry"/>
        </mxCell>
        <mxCell id="eDpG2MKJNi3HJfzrJsTe-23" value="" style="edgeStyle=elbowEdgeStyle;elbow=horizontal;endArrow=none;html=1;strokeColor=#23445D;endFill=0;strokeWidth=4;rounded=1" parent="1" target="eDpG2MKJNi3HJfzrJsTe-15" edge="1">
          <mxGeometry width="100" height="100" relative="1" as="geometry">
            <mxPoint x="293.5" y="419" as="sourcePoint"/>
            <mxPoint x="293.83333333333337" y="365.94444444444446" as="targetPoint"/>
          </mxGeometry>
        </mxCell>
        <mxCell id="eDpG2MKJNi3HJfzrJsTe-24" value="" style="edgeStyle=elbowEdgeStyle;elbow=horizontal;endArrow=none;html=1;strokeColor=#23445D;endFill=0;strokeWidth=4;rounded=1" parent="1" target="eDpG2MKJNi3HJfzrJsTe-16" edge="1">
          <mxGeometry width="100" height="100" relative="1" as="geometry">
            <mxPoint x="227.5" y="420" as="sourcePoint"/>
            <mxPoint x="227.83333333333337" y="366.94444444444446" as="targetPoint"/>
          </mxGeometry>
        </mxCell>
        <mxCell id="eDpG2MKJNi3HJfzrJsTe-25" value="" style="edgeStyle=elbowEdgeStyle;elbow=horizontal;endArrow=none;html=1;strokeColor=#23445D;endFill=0;strokeWidth=4;rounded=1" parent="1" target="eDpG2MKJNi3HJfzrJsTe-17" edge="1">
          <mxGeometry width="100" height="100" relative="1" as="geometry">
            <mxPoint x="157.5" y="420" as="sourcePoint"/>
            <mxPoint x="157.30555555555554" y="366.94444444444446" as="targetPoint"/>
          </mxGeometry>
        </mxCell>
        <mxCell id="eDpG2MKJNi3HJfzrJsTe-26" value="" style="edgeStyle=elbowEdgeStyle;elbow=horizontal;endArrow=none;html=1;strokeColor=#23445D;endFill=0;strokeWidth=4;rounded=1" parent="1" target="eDpG2MKJNi3HJfzrJsTe-14" edge="1">
          <mxGeometry width="100" height="100" relative="1" as="geometry">
            <mxPoint x="89.5" y="420" as="sourcePoint"/>
            <mxPoint x="89.30555555555554" y="366.94444444444446" as="targetPoint"/>
          </mxGeometry>
        </mxCell>
        <mxCell id="eDpG2MKJNi3HJfzrJsTe-27" value="&lt;font color=&quot;#23445d&quot;&gt;&lt;span&gt;Servers DMZ&amp;nbsp;&lt;/span&gt;&lt;/font&gt;" style="rounded=1;whiteSpace=wrap;html=1;strokeColor=none;fillColor=none;fontSize=14;fontColor=#742B21;align=center;fontStyle=1" parent="1" vertex="1">
          <mxGeometry x="70" y="290" width="266" height="19" as="geometry"/>
        </mxCell>
        <mxCell id="eDpG2MKJNi3HJfzrJsTe-28" value="&lt;font color=&quot;#23445d&quot;&gt;&lt;span&gt;164.4.1.0/24&lt;/span&gt;&lt;/font&gt;" style="rounded=1;whiteSpace=wrap;html=1;strokeColor=none;fillColor=none;fontSize=14;fontColor=#742B21;align=center;fontStyle=0" parent="1" vertex="1">
          <mxGeometry x="70" y="431.5" width="266" height="19" as="geometry"/>
        </mxCell>
        <mxCell id="eDpG2MKJNi3HJfzrJsTe-29" value="&lt;font color=&quot;#23445d&quot;&gt;&lt;span&gt;DHCP&lt;/span&gt;&lt;/font&gt;" style="rounded=1;whiteSpace=wrap;html=1;strokeColor=none;fillColor=none;fontSize=14;fontColor=#742B21;align=center;fontStyle=1" parent="1" vertex="1">
          <mxGeometry x="260.5" y="326" width="65" height="19" as="geometry"/>
        </mxCell>
        <mxCell id="eDpG2MKJNi3HJfzrJsTe-30" value="" style="shape=image;html=1;verticalAlign=top;verticalLabelPosition=bottom;labelBackgroundColor=#ffffff;imageAspect=0;aspect=fixed;image=https://cdn3.iconfinder.com/data/icons/funky/136/Fire-128.png;fontSize=12;imageBackground=none;" parent="1" vertex="1">
          <mxGeometry x="576" y="413" width="50" height="50" as="geometry"/>
        </mxCell>
        <mxCell id="m8ftNf-RLhbLN0EkpQ5M-11" style="rounded=0;orthogonalLoop=1;jettySize=auto;html=1;exitX=0.88;exitY=0.9;exitDx=0;exitDy=0;exitPerimeter=0;entryX=0.12;entryY=0.1;entryDx=0;entryDy=0;entryPerimeter=0;endArrow=none;endFill=0;strokeWidth=3;" edge="1" parent="1" source="m8ftNf-RLhbLN0EkpQ5M-4" target="m8ftNf-RLhbLN0EkpQ5M-5">
          <mxGeometry relative="1" as="geometry"/>
        </mxCell>
        <mxCell id="m8ftNf-RLhbLN0EkpQ5M-22" style="edgeStyle=none;rounded=0;orthogonalLoop=1;jettySize=auto;html=1;exitX=1;exitY=0.5;exitDx=0;exitDy=0;exitPerimeter=0;entryX=0.12;entryY=0.1;entryDx=0;entryDy=0;entryPerimeter=0;endArrow=none;endFill=0;strokeWidth=3;" edge="1" parent="1" source="m8ftNf-RLhbLN0EkpQ5M-4" target="m8ftNf-RLhbLN0EkpQ5M-6">
          <mxGeometry relative="1" as="geometry"/>
        </mxCell>
        <mxCell id="m8ftNf-RLhbLN0EkpQ5M-4" value="" style="shape=mxgraph.cisco.routers.router;html=1;pointerEvents=1;dashed=0;fillColor=#000000;strokeColor=#ffffff;strokeWidth=2;verticalLabelPosition=bottom;verticalAlign=top;align=center;outlineConnect=0;" vertex="1" parent="1">
          <mxGeometry x="780" y="440" width="78" height="53" as="geometry"/>
        </mxCell>
        <mxCell id="m8ftNf-RLhbLN0EkpQ5M-17" style="edgeStyle=none;rounded=0;orthogonalLoop=1;jettySize=auto;html=1;exitX=0.12;exitY=0.9;exitDx=0;exitDy=0;exitPerimeter=0;entryX=0.88;entryY=0.1;entryDx=0;entryDy=0;entryPerimeter=0;endArrow=none;endFill=0;strokeWidth=3;" edge="1" parent="1" source="m8ftNf-RLhbLN0EkpQ5M-5" target="m8ftNf-RLhbLN0EkpQ5M-8">
          <mxGeometry relative="1" as="geometry"/>
        </mxCell>
        <mxCell id="m8ftNf-RLhbLN0EkpQ5M-18" style="edgeStyle=none;rounded=0;orthogonalLoop=1;jettySize=auto;html=1;endArrow=none;endFill=0;strokeWidth=3;" edge="1" parent="1" source="m8ftNf-RLhbLN0EkpQ5M-5" target="m8ftNf-RLhbLN0EkpQ5M-6">
          <mxGeometry relative="1" as="geometry">
            <mxPoint x="988" y="574.5" as="sourcePoint"/>
            <mxPoint x="1230" y="575" as="targetPoint"/>
          </mxGeometry>
        </mxCell>
        <mxCell id="m8ftNf-RLhbLN0EkpQ5M-19" style="edgeStyle=none;rounded=0;orthogonalLoop=1;jettySize=auto;html=1;exitX=0.88;exitY=0.9;exitDx=0;exitDy=0;exitPerimeter=0;entryX=0;entryY=0.5;entryDx=0;entryDy=0;entryPerimeter=0;endArrow=none;endFill=0;strokeWidth=3;" edge="1" parent="1" source="m8ftNf-RLhbLN0EkpQ5M-5" target="m8ftNf-RLhbLN0EkpQ5M-9">
          <mxGeometry relative="1" as="geometry"/>
        </mxCell>
        <mxCell id="m8ftNf-RLhbLN0EkpQ5M-5" value="" style="shape=mxgraph.cisco.routers.router;html=1;pointerEvents=1;dashed=0;fillColor=#000000;strokeColor=#ffffff;strokeWidth=2;verticalLabelPosition=bottom;verticalAlign=top;align=center;outlineConnect=0;" vertex="1" parent="1">
          <mxGeometry x="910" y="550" width="78" height="53" as="geometry"/>
        </mxCell>
        <mxCell id="m8ftNf-RLhbLN0EkpQ5M-15" style="edgeStyle=none;rounded=0;orthogonalLoop=1;jettySize=auto;html=1;exitX=0.88;exitY=0.1;exitDx=0;exitDy=0;exitPerimeter=0;entryX=0.12;entryY=0.9;entryDx=0;entryDy=0;entryPerimeter=0;endArrow=none;endFill=0;strokeWidth=3;" edge="1" parent="1" source="m8ftNf-RLhbLN0EkpQ5M-6" target="m8ftNf-RLhbLN0EkpQ5M-7">
          <mxGeometry relative="1" as="geometry"/>
        </mxCell>
        <mxCell id="m8ftNf-RLhbLN0EkpQ5M-16" style="edgeStyle=none;rounded=0;orthogonalLoop=1;jettySize=auto;html=1;exitX=0.88;exitY=0.9;exitDx=0;exitDy=0;exitPerimeter=0;entryX=0.12;entryY=0.1;entryDx=0;entryDy=0;entryPerimeter=0;endArrow=none;endFill=0;strokeWidth=3;" edge="1" parent="1" source="m8ftNf-RLhbLN0EkpQ5M-6" target="m8ftNf-RLhbLN0EkpQ5M-9">
          <mxGeometry relative="1" as="geometry"/>
        </mxCell>
        <mxCell id="m8ftNf-RLhbLN0EkpQ5M-6" value="" style="shape=mxgraph.cisco.routers.router;html=1;pointerEvents=1;dashed=0;fillColor=#000000;strokeColor=#ffffff;strokeWidth=2;verticalLabelPosition=bottom;verticalAlign=top;align=center;outlineConnect=0;" vertex="1" parent="1">
          <mxGeometry x="1050" y="550" width="78" height="53" as="geometry"/>
        </mxCell>
        <mxCell id="m8ftNf-RLhbLN0EkpQ5M-23" style="edgeStyle=none;rounded=0;orthogonalLoop=1;jettySize=auto;html=1;exitX=0;exitY=0.5;exitDx=0;exitDy=0;exitPerimeter=0;entryX=0.88;entryY=0.1;entryDx=0;entryDy=0;entryPerimeter=0;endArrow=none;endFill=0;strokeWidth=3;" edge="1" parent="1" source="m8ftNf-RLhbLN0EkpQ5M-7" target="m8ftNf-RLhbLN0EkpQ5M-5">
          <mxGeometry relative="1" as="geometry"/>
        </mxCell>
        <mxCell id="m8ftNf-RLhbLN0EkpQ5M-7" value="" style="shape=mxgraph.cisco.routers.router;html=1;pointerEvents=1;dashed=0;fillColor=#000000;strokeColor=#ffffff;strokeWidth=2;verticalLabelPosition=bottom;verticalAlign=top;align=center;outlineConnect=0;" vertex="1" parent="1">
          <mxGeometry x="1160" y="440" width="78" height="53" as="geometry"/>
        </mxCell>
        <mxCell id="m8ftNf-RLhbLN0EkpQ5M-20" style="edgeStyle=none;rounded=0;orthogonalLoop=1;jettySize=auto;html=1;exitX=1;exitY=0.5;exitDx=0;exitDy=0;exitPerimeter=0;entryX=0.12;entryY=0.9;entryDx=0;entryDy=0;entryPerimeter=0;endArrow=none;endFill=0;strokeWidth=3;" edge="1" parent="1" source="m8ftNf-RLhbLN0EkpQ5M-8" target="m8ftNf-RLhbLN0EkpQ5M-6">
          <mxGeometry relative="1" as="geometry"/>
        </mxCell>
        <mxCell id="m8ftNf-RLhbLN0EkpQ5M-8" value="" style="shape=mxgraph.cisco.routers.router;html=1;pointerEvents=1;dashed=0;fillColor=#000000;strokeColor=#ffffff;strokeWidth=2;verticalLabelPosition=bottom;verticalAlign=top;align=center;outlineConnect=0;" vertex="1" parent="1">
          <mxGeometry x="780" y="660" width="78" height="53" as="geometry"/>
        </mxCell>
        <mxCell id="m8ftNf-RLhbLN0EkpQ5M-9" value="" style="shape=mxgraph.cisco.routers.router;html=1;pointerEvents=1;dashed=0;fillColor=#000000;strokeColor=#ffffff;strokeWidth=2;verticalLabelPosition=bottom;verticalAlign=top;align=center;outlineConnect=0;" vertex="1" parent="1">
          <mxGeometry x="1160" y="660" width="78" height="53" as="geometry"/>
        </mxCell>
        <mxCell id="m8ftNf-RLhbLN0EkpQ5M-26" style="edgeStyle=none;rounded=0;orthogonalLoop=1;jettySize=auto;html=1;exitX=1;exitY=0.5;exitDx=0;exitDy=0;exitPerimeter=0;entryX=0;entryY=0.5;entryDx=0;entryDy=0;entryPerimeter=0;endArrow=none;endFill=0;strokeWidth=3;" edge="1" parent="1">
          <mxGeometry relative="1" as="geometry">
            <mxPoint x="987" y="585" as="sourcePoint"/>
            <mxPoint x="1049" y="585" as="targetPoint"/>
          </mxGeometry>
        </mxCell>
        <mxCell id="m8ftNf-RLhbLN0EkpQ5M-27" style="edgeStyle=none;rounded=0;orthogonalLoop=1;jettySize=auto;html=1;exitX=0.88;exitY=0.9;exitDx=0;exitDy=0;exitPerimeter=0;endArrow=none;endFill=0;strokeWidth=3;" edge="1" parent="1">
          <mxGeometry relative="1" as="geometry">
            <mxPoint x="630.1400000000001" y="425.20000000000005" as="sourcePoint"/>
            <mxPoint x="800" y="663.5" as="targetPoint"/>
          </mxGeometry>
        </mxCell>
        <mxCell id="m8ftNf-RLhbLN0EkpQ5M-28" style="edgeStyle=none;rounded=0;orthogonalLoop=1;jettySize=auto;html=1;exitX=1;exitY=0.5;exitDx=0;exitDy=0;exitPerimeter=0;entryX=0;entryY=0.5;entryDx=0;entryDy=0;entryPerimeter=0;endArrow=none;endFill=0;strokeWidth=3;" edge="1" parent="1">
          <mxGeometry relative="1" as="geometry">
            <mxPoint x="640" y="407" as="sourcePoint"/>
            <mxPoint x="780" y="456" as="targetPoint"/>
          </mxGeometry>
        </mxCell>
        <mxCell id="m8ftNf-RLhbLN0EkpQ5M-31" value="&lt;font color=&quot;#23445d&quot;&gt;&lt;span&gt;DataCenter: Emergency and Simulator&lt;br&gt;AS 65001&lt;/span&gt;&lt;/font&gt;" style="rounded=1;whiteSpace=wrap;html=1;strokeColor=none;fillColor=none;fontSize=14;fontColor=#742B21;align=center;fontStyle=1" vertex="1" parent="1">
          <mxGeometry x="156.5" y="230" width="266" height="19" as="geometry"/>
        </mxCell>
      </root>
    </mxGraphModel>
  </diagram>
</mxfile>
